<svg xmlns="http://www.w3.org/2000/svg" xmlns:xlink="http://www.w3.org/1999/xlink" width="1600" height="1160" viewBox="0 0 1600 1160" role="img" aria-labelledby="title desc">
<title id="title">野猪骑着自行车喊：21！</title>
<desc id="desc">一只长着獠牙和鬃毛的棕色野猪，戴着绿色骑行头盔、系着橘红围巾，骑薄荷绿色自行车穿过林间小路，大声喊出糖果问题的答案：21。利用手感选取9个圆形和12个五角星形糖果，保证同时拥有形状不同的苹果味与桃子味糖果。</desc>
<defs>
  <linearGradient id="paper" x2=".9" y2="1">
    <stop stop-color="#fff8e7"/><stop offset="1" stop-color="#efe3bd"/>
  </linearGradient>
  <linearGradient id="body" x1=".2" y1="0" x2=".8" y2="1">
    <stop stop-color="#ab6840"/><stop offset=".45" stop-color="#855030"/><stop offset="1" stop-color="#4b3726"/>
  </linearGradient>
  <linearGradient id="face" x1="0" y1="0" x2="1" y2="1">
    <stop stop-color="#be7950"/><stop offset=".5" stop-color="#a8653f"/><stop offset="1" stop-color="#78402b"/>
  </linearGradient>
  <linearGradient id="snout" x2=".5" y2="1">
    <stop stop-color="#e2a37e"/><stop offset="1" stop-color="#bf7352"/>
  </linearGradient>
  <linearGradient id="metal" x2="1" y2="1">
    <stop stop-color="#e6e8d8"/><stop offset=".5" stop-color="#99afa1"/><stop offset="1" stop-color="#f8f1d4"/>
  </linearGradient>
  <linearGradient id="helmet" x1="0" y1="0" x2="1" y2="1">
    <stop stop-color="#749d68"/><stop offset="1" stop-color="#28523e"/>
  </linearGradient>
  <radialGradient id="sun">
    <stop stop-color="#f4c266"/><stop offset="1" stop-color="#edb865"/>
  </radialGradient>
  <pattern id="grain" width="37" height="43" patternUnits="userSpaceOnUse">
    <circle cx="4" cy="7" r=".75" fill="#74583b" opacity=".15"/>
    <circle cx="23" cy="29" r=".65" fill="#74583b" opacity=".13"/>
    <circle cx="33" cy="14" r=".5" fill="#fffaf0" opacity=".7"/>
    <path d="M11 36h2M29 3h1" stroke="#8d7751" stroke-width=".5" opacity=".16"/>
  </pattern>
  <pattern id="knit" width="9" height="9" patternUnits="userSpaceOnUse">
    <path d="M1 0l3 5 3-5" fill="none" stroke="#f6b56c" stroke-width=".6" opacity=".4"/>
  </pattern>
  <clipPath id="artClip"><rect x="28" y="28" width="1544" height="1104" rx="28"/></clipPath>
  <g id="leaf">
    <path d="M0 0C-43-12-51-49-45-74C-9-65 7-38 0 0Z" fill="currentColor"/>
    <path d="M0 0Q-17-34-38-63" fill="none" stroke="#eddfb8" stroke-width="1.5" opacity=".55"/>
  </g>
  <g id="flower">
    <path d="M0 0Q-4-25 5-49" stroke="#48644a" stroke-width="3" fill="none"/>
    <path d="M0-18Q-19-36-21-23Q-17-12 0-14" fill="#65835c"/>
    <g transform="translate(5 -49)" fill="#f2d47b">
      <ellipse rx="5" ry="11" transform="rotate(0) translate(0 -7)"/>
      <ellipse rx="5" ry="11" transform="rotate(72) translate(0 -7)"/>
      <ellipse rx="5" ry="11" transform="rotate(144) translate(0 -7)"/>
      <ellipse rx="5" ry="11" transform="rotate(216) translate(0 -7)"/>
      <ellipse rx="5" ry="11" transform="rotate(288) translate(0 -7)"/>
      <circle r="5" fill="#a66c3c"/>
    </g>
  </g>
</defs>
<style>
  text{font-family:"Microsoft YaHei","PingFang SC","Noto Sans CJK SC",sans-serif}
  .line{stroke-linecap:round;stroke-linejoin:round}
  .ink{stroke:#342f25;stroke-linecap:round;stroke-linejoin:round}
  .small{font-size:14px;font-weight:700;letter-spacing:3px}
</style>
<rect width="1600" height="1160" fill="#203f35"/>
<g clip-path="url(#artClip)">
  <rect x="28" y="28" width="1544" height="1104" fill="url(#paper)"/>
  <!-- 温暖的纸张、太阳与层叠的林地构成整幅插画的底色。 -->
  <circle cx="873" cy="409" r="300" fill="url(#sun)" opacity=".62"/>
  <circle cx="873" cy="409" r="318" fill="none" stroke="#cd9b51" opacity=".18"/>
  <path d="M29 564C207 477 343 550 480 511C640 465 732 571 894 548C1077 521 1308 456 1572 543V854H28Z" fill="#d6ddae"/>
  <path d="M29 644C231 544 359 640 510 602C723 549 831 683 1002 596C1266 461 1420 579 1572 590V901H28Z" fill="#aaba87"/>
  <path d="M29 701C257 674 376 634 561 689C777 754 932 671 1122 659C1314 648 1442 690 1572 647V956H28Z" fill="#829b70"/>
  <path d="M29 845C292 748 502 749 763 788C1051 831 1295 775 1572 716V1015H28Z" fill="#e5cf98"/>
  <path d="M29 918C421 747 682 914 1023 863C1237 831 1454 837 1572 780" fill="none" stroke="#f7e8bb" stroke-width="76"/>
  <path d="M246 881C490 819 687 905 927 886C1191 866 1324 876 1450 835" fill="none" stroke="#caab76" stroke-width="2" stroke-dasharray="12 19" opacity=".4"/>
  <!-- 林间树影：远景轻、近景重，保留主体周围的留白。 -->
  <g fill="#91a578" opacity=".48">
    <path d="M179 591l13-338 15 338Z"/><path d="M97 472l98-262 100 262-55-16 54 80H98l55-82Z"/>
    <path d="M355 611l9-294 11 294Z"/><path d="M282 524l83-230 81 230-39-18 43 79H282l44-77Z"/>
    <path d="M1375 634l9-270 12 270Z"/><path d="M1328 547l58-204 78 218-42-18 40 57h-154l49-69Z"/>
  </g>
  <g class="line" fill="none" stroke="#eaf0cd" stroke-width="3" opacity=".52">
    <path d="M200 508l-1-210m0 90-40-34m42 59 44-50m-46 78-64-48"/>
    <path d="M369 558V369m0 71-28-28m28 58 35-33"/>
  </g>
  <g fill="#fbf6df" opacity=".92">
    <path d="M348 242c-5-27 30-39 45-20 19-13 45 0 42 19 25-10 42 7 40 18H321c-2-12 13-21 27-17Z"/>
    <path d="M1060 107c-2-20 19-31 35-16 11-8 30 1 28 15 20-8 33 2 34 12h-116c1-8 10-12 19-11Z" opacity=".6"/>
  </g>
  <g fill="none" stroke="#74856a" stroke-width="3" class="line">
    <path d="M527 197q11-12 21 0 11-12 23-1"/>
    <path d="M566 169q7-8 15 0 7-8 15-1"/>
  </g>
  <!-- 页眉与小小的骑行徽章。 -->
  <g transform="translate(92 87)" fill="#294c3c">
    <circle cx="16" cy="0" r="22" fill="none" stroke="#294c3c" stroke-width="1.5"/>
    <path d="M3 8 12-10 20 3 25-5 34 8Z" fill="#294c3c"/>
    <text x="56" y="-1" font-size="16" font-weight="800" letter-spacing="4">林间奇想</text>
    <text x="57" y="20" font-size="10" letter-spacing="2.5">THE WILD LITTLE THINKER</text>
  </g>
  <text x="92" y="175" font-size="47" fill="#294c3c" font-weight="900" letter-spacing="1">骑着车，也想明白了。</text>
  <text x="95" y="212" font-size="17" fill="#69765a" letter-spacing="2">一只野猪 · 一辆单车 · 一道糖果题</text>
  <g transform="translate(1474 85)" stroke="#294c3c" fill="none">
    <circle r="24" stroke-width="1.4"/>
    <path d="M-11 0h22M0-11v22M-8-8 8 8M-8 8 8-8" stroke-width="1.2"/>
    <circle r="7" fill="#294c3c"/>
  </g>
  <!-- 车轮与传动系统保持可辨认的机械结构。 -->
  <ellipse cx="834" cy="966" rx="442" ry="23" fill="#7e744c" opacity=".16"/>
  <ellipse cx="550" cy="963" rx="147" ry="9" fill="#554c33" opacity=".16"/>
  <ellipse cx="1130" cy="963" rx="146" ry="9" fill="#554c33" opacity=".16"/>
  <g>
<circle cx="550" cy="780" r="177" fill="#f8ebca" fill-opacity=".38" stroke="#252f2a" stroke-width="19"/>
<circle cx="550" cy="780" r="177" fill="none" stroke="#718073" stroke-width="2" stroke-dasharray="3 11"/>
<circle cx="550" cy="780" r="164" fill="none" stroke="#b4bbb0" stroke-width="6"/>
<circle cx="550" cy="780" r="159" fill="none" stroke="#f9f4df" stroke-width="3"/>
<g stroke="#65776c" stroke-width="1.35" opacity=".7"><line x1="568.79" y1="777.21" x2="706.78" y2="788.22"/>
<line x1="567.12" y1="788.24" x2="702.17" y2="818.65"/>
<line x1="568.43" y1="784.61" x2="691.71" y2="847.59"/>
<line x1="562.66" y1="794.17" x2="675.80" y2="873.94"/>
<line x1="565.27" y1="791.31" x2="655.05" y2="896.67"/>
<line x1="556.28" y1="797.93" x2="630.27" y2="914.93"/>
<line x1="559.77" y1="796.29" x2="602.41" y2="927.99"/>
<line x1="548.94" y1="798.97" x2="572.53" y2="935.38"/>
<line x1="552.79" y1="798.79" x2="541.78" y2="936.78"/>
<line x1="541.76" y1="797.12" x2="511.35" y2="932.17"/>
<line x1="545.39" y1="798.43" x2="482.41" y2="921.71"/>
<line x1="535.83" y1="792.66" x2="456.06" y2="905.80"/>
<line x1="538.69" y1="795.27" x2="433.33" y2="885.05"/>
<line x1="532.07" y1="786.28" x2="415.07" y2="860.27"/>
<line x1="533.71" y1="789.77" x2="402.01" y2="832.41"/>
<line x1="531.03" y1="778.94" x2="394.62" y2="802.53"/>
<line x1="531.21" y1="782.79" x2="393.22" y2="771.78"/>
<line x1="532.88" y1="771.76" x2="397.83" y2="741.35"/>
<line x1="531.57" y1="775.39" x2="408.29" y2="712.41"/>
<line x1="537.34" y1="765.83" x2="424.20" y2="686.06"/>
<line x1="534.73" y1="768.69" x2="444.95" y2="663.33"/>
<line x1="543.72" y1="762.07" x2="469.73" y2="645.07"/>
<line x1="540.23" y1="763.71" x2="497.59" y2="632.01"/>
<line x1="551.06" y1="761.03" x2="527.47" y2="624.62"/>
<line x1="547.21" y1="761.21" x2="558.22" y2="623.22"/>
<line x1="558.24" y1="762.88" x2="588.65" y2="627.83"/>
<line x1="554.61" y1="761.57" x2="617.59" y2="638.29"/>
<line x1="564.17" y1="767.34" x2="643.94" y2="654.20"/>
<line x1="561.31" y1="764.73" x2="666.67" y2="674.95"/>
<line x1="567.93" y1="773.72" x2="684.93" y2="699.73"/>
<line x1="566.29" y1="770.23" x2="697.99" y2="727.59"/>
<line x1="568.97" y1="781.06" x2="705.38" y2="757.47"/></g>
<circle cx="550" cy="780" r="20" fill="#d7d9c9" stroke="#30473b" stroke-width="4"/>
<circle cx="550" cy="780" r="8" fill="#ecab50" stroke="#30473b" stroke-width="3"/>
<path d="M415 659 A181 181 0 0 1 649 629" fill="none" stroke="#fff9e6" stroke-width="3" opacity=".65"/>
</g>
  <g>
<circle cx="1130" cy="780" r="177" fill="#f8ebca" fill-opacity=".38" stroke="#252f2a" stroke-width="19"/>
<circle cx="1130" cy="780" r="177" fill="none" stroke="#718073" stroke-width="2" stroke-dasharray="3 11"/>
<circle cx="1130" cy="780" r="164" fill="none" stroke="#b4bbb0" stroke-width="6"/>
<circle cx="1130" cy="780" r="159" fill="none" stroke="#f9f4df" stroke-width="3"/>
<g stroke="#65776c" stroke-width="1.35" opacity=".7"><line x1="1148.79" y1="777.21" x2="1286.78" y2="788.22"/>
<line x1="1147.12" y1="788.24" x2="1282.17" y2="818.65"/>
<line x1="1148.43" y1="784.61" x2="1271.71" y2="847.59"/>
<line x1="1142.66" y1="794.17" x2="1255.80" y2="873.94"/>
<line x1="1145.27" y1="791.31" x2="1235.05" y2="896.67"/>
<line x1="1136.28" y1="797.93" x2="1210.27" y2="914.93"/>
<line x1="1139.77" y1="796.29" x2="1182.41" y2="927.99"/>
<line x1="1128.94" y1="798.97" x2="1152.53" y2="935.38"/>
<line x1="1132.79" y1="798.79" x2="1121.78" y2="936.78"/>
<line x1="1121.76" y1="797.12" x2="1091.35" y2="932.17"/>
<line x1="1125.39" y1="798.43" x2="1062.41" y2="921.71"/>
<line x1="1115.83" y1="792.66" x2="1036.06" y2="905.80"/>
<line x1="1118.69" y1="795.27" x2="1013.33" y2="885.05"/>
<line x1="1112.07" y1="786.28" x2="995.07" y2="860.27"/>
<line x1="1113.71" y1="789.77" x2="982.01" y2="832.41"/>
<line x1="1111.03" y1="778.94" x2="974.62" y2="802.53"/>
<line x1="1111.21" y1="782.79" x2="973.22" y2="771.78"/>
<line x1="1112.88" y1="771.76" x2="977.83" y2="741.35"/>
<line x1="1111.57" y1="775.39" x2="988.29" y2="712.41"/>
<line x1="1117.34" y1="765.83" x2="1004.20" y2="686.06"/>
<line x1="1114.73" y1="768.69" x2="1024.95" y2="663.33"/>
<line x1="1123.72" y1="762.07" x2="1049.73" y2="645.07"/>
<line x1="1120.23" y1="763.71" x2="1077.59" y2="632.01"/>
<line x1="1131.06" y1="761.03" x2="1107.47" y2="624.62"/>
<line x1="1127.21" y1="761.21" x2="1138.22" y2="623.22"/>
<line x1="1138.24" y1="762.88" x2="1168.65" y2="627.83"/>
<line x1="1134.61" y1="761.57" x2="1197.59" y2="638.29"/>
<line x1="1144.17" y1="767.34" x2="1223.94" y2="654.20"/>
<line x1="1141.31" y1="764.73" x2="1246.67" y2="674.95"/>
<line x1="1147.93" y1="773.72" x2="1264.93" y2="699.73"/>
<line x1="1146.29" y1="770.23" x2="1277.99" y2="727.59"/>
<line x1="1148.97" y1="781.06" x2="1285.38" y2="757.47"/></g>
<circle cx="1130" cy="780" r="20" fill="#d7d9c9" stroke="#30473b" stroke-width="4"/>
<circle cx="1130" cy="780" r="8" fill="#ecab50" stroke="#30473b" stroke-width="3"/>
<path d="M995 659 A181 181 0 0 1 1229 629" fill="none" stroke="#fff9e6" stroke-width="3" opacity=".65"/>
</g>
  <g class="line" fill="none">
    <path d="M375 735A181 181 0 0 1 695 668" stroke="#375b4c" stroke-width="9"/>
    <path d="M375 732A181 181 0 0 1 695 665" stroke="#a6bba0" stroke-width="3"/>
    <path d="M999 653A182 182 0 0 1 1303 729" stroke="#375b4c" stroke-width="9"/>
    <path d="M999 650A182 182 0 0 1 1303 726" stroke="#a6bba0" stroke-width="3"/>
    <path d="M412 689 550 780 651 641M1272 692 1130 780 1042 622" stroke="#74867a" stroke-width="2.5"/>
    <path d="M528 758 809 757a43 43 0 0 1 0 86L528 802a23 23 0 0 1 0-44Z" stroke="#343d32" stroke-width="8"/>
    <path d="M528 758 809 757a43 43 0 0 1 0 86L528 802a23 23 0 0 1 0-44Z" stroke="#c8c7a4" stroke-width="3" stroke-dasharray="2 6"/>
    <path d="M550 780 722 589 817 800 550 780M722 589 1003 588 817 800M1003 588 1130 780" stroke="#254c3f" stroke-width="20"/>
    <path d="M550 780 722 589 817 800 550 780M722 589 1003 588 817 800M1003 588 1130 780" stroke="#6ca48c" stroke-width="12"/>
    <path d="M556 775 720 594M728 585h266M1008 591 1128 772M998 595 824 792" stroke="#b3d2ad" stroke-width="3"/>
    <path d="M705 550 722 589M983 537 1003 588" stroke="#304b3b" stroke-width="14"/>
    <path d="M705 550 722 589M983 537 1003 588" stroke="url(#metal)" stroke-width="8"/>
    <path d="M983 537 1036 512q28-11 48 5l12 12" stroke="#27392e" stroke-width="12"/>
    <path d="M983 537 1036 512q28-11 48 5" stroke="#c8d5bc" stroke-width="7"/>
    <path d="M1075 512q22 1 28 17" stroke="#a16439" stroke-width="15"/>
    <path d="M1090 518l-5 15" stroke="#d99752" stroke-width="2"/>
    <path d="M1056 523q49 75-14 137" stroke="#384b3b" stroke-width="2.5"/>
    <path d="M996 562q-43 57-150 67" stroke="#43543f" stroke-width="2"/>
  </g>
  <path d="M663 547q29-11 70-4l28 12q-1 14-33 12l-63-3q-18-3-2-17Z" fill="#774832" stroke="#342f25" stroke-width="4"/>
  <path d="M674 549q33-3 62 1" fill="none" stroke="#d29b61" stroke-width="2"/>
  <g transform="translate(817 800)">
    <circle r="43" fill="#739986" stroke="#314b3e" stroke-width="4"/>
    <circle r="34" fill="#d9ddbd" stroke="#324c3e" stroke-width="3" stroke-dasharray="3 4"/>
    <circle r="23" fill="#466b54"/>
    <path d="M0-24V24M-23-8 23 8M-14 19 14-19" stroke="#acbf9e" stroke-width="7"/>
    <path d="M-56 51 56-51" stroke="#263d31" stroke-width="12" stroke-linecap="round"/>
    <path d="M-54 49 54-49" stroke="#bccab3" stroke-width="6" stroke-linecap="round"/>
    <circle r="9" fill="#e5d298" stroke="#324b3d" stroke-width="3"/>
  </g>
  <g fill="#273c32" stroke="#c5c5a0" stroke-width="2">
    <rect x="730" y="845" width="57" height="13" rx="3"/>
    <rect x="850" y="743" width="57" height="13" rx="3"/>
  </g>
  <g fill="#e3af61"><rect x="744" y="849" width="20" height="4" rx="1"/><rect x="864" y="747" width="22" height="4" rx="1"/></g>
  <text x="794" y="613" fill="#e9edd0" font-family="Georgia,serif" font-size="13" letter-spacing="3" transform="rotate(-.2 794 613)">WILD / 21</text>
  <g transform="translate(932 658) rotate(34)">
    <rect x="-16" y="-10" width="33" height="68" rx="10" fill="#e3b866" stroke="#365640" stroke-width="3"/>
    <rect x="-10" y="-18" width="20" height="11" rx="3" fill="#3b5a44"/>
    <path d="M-19 15v30q0 12 17 12h22" stroke="#3b5a44" stroke-width="4" fill="none"/>
    <path d="M-11 13H10M-11 18H10" stroke="#f3dfad" stroke-width="2"/>
  </g>
  <!-- 远侧后腿和卷尾先绘制，再由身体覆盖连接位置。 -->
  <path d="M683 482q-56 53-25 128l39 72 38 134q3 22 23 24l17-11-27-156-29-83 35-55Z" fill="#66422d" stroke="#382d23" stroke-width="5" class="line"/>
  <path d="M735 812q15 6 35-2l18 34q0 11-28 9l-25-5Z" fill="#2c3027" stroke="#382d23" stroke-width="4"/>
  <path d="m760 830 3 21" stroke="#a48d6a" stroke-width="2"/>
  <path d="M558 433q-70 4-72-40c-1-24 36-34 40-9 3 20-26 24-36 11q-12-15-26-7" fill="none" stroke="#382f24" stroke-width="14" class="line"/>
  <path d="M558 430q-70 4-72-40c-1-20 32-28 36-7 3 15-21 19-31 10" fill="none" stroke="#a77448" stroke-width="7" class="line"/>
  <!-- 锯齿形鬃毛与皮毛笔触让角色具有野猪的轮廓。 -->
  <path d="m550 418-15-14 20-9-12-16 26-6-8-19 29-3-5-18 27 2 2-24 28 9 6-23 27 10 8-22 26 12 10-20 29 14 14-15 23 16 21-13 18 20 21-8 18 18 25 4 18 27-65 71-209 99Z" fill="#483529" stroke="#362e23" stroke-width="4" class="line"/>
  <path d="M559 393C610 324 717 297 806 335C859 355 909 389 927 434C949 492 887 537 813 548C725 567 620 539 574 487C547 459 542 424 559 393Z" fill="url(#body)" stroke="#392f24" stroke-width="5" class="line"/>
  <path d="M575 401c49-66 148-92 218-63-55-9-127 13-158 51-40 47-33 81-12 115-51-28-66-65-48-103Z" fill="#ce8f56" opacity=".35"/>
  <path d="M642 505q90 42 177 12 36-13 70-49-2 55-83 68-89 19-164-31Z" fill="#3c3325" opacity=".24"/>
  <g fill="none" stroke="#ddb07a" stroke-width="2.3" opacity=".42" class="line"><path d="M554 403 Q562 400 581 414"/>
<path d="M572 379 Q580 376 597 394"/>
<path d="M599 364 Q607 361 621 383"/>
<path d="M620 344 Q628 341 644 366"/>
<path d="M648 331 Q656 328 674 356"/>
<path d="M678 318 Q686 315 704 343"/>
<path d="M711 311 Q719 308 733 337"/>
<path d="M742 309 Q750 306 762 333"/>
<path d="M772 313 Q780 310 788 336"/>
<path d="M800 322 Q808 319 812 341"/>
<path d="M569 440 Q577 437 595 437"/>
<path d="M585 461 Q593 458 611 454"/>
<path d="M600 490 Q608 487 625 476"/>
<path d="M625 505 Q633 502 649 491"/>
<path d="M652 517 Q660 514 674 499"/>
<path d="M681 527 Q689 524 697 507"/>
<path d="M711 533 Q719 530 725 511"/>
<path d="M737 536 Q745 533 746 514"/>
<path d="M765 529 Q773 526 771 506"/>
<path d="M615 409 Q623 406 632 406"/>
<path d="M642 390 Q650 387 659 390"/>
<path d="M672 369 Q680 366 687 373"/>
<path d="M704 357 Q712 354 718 363"/>
<path d="M742 354 Q750 351 756 360"/>
<path d="M780 368 Q788 365 792 375"/>
<path d="M810 383 Q818 380 822 393"/>
<path d="M641 437 Q649 434 658 430"/>
<path d="M670 413 Q678 410 686 412"/>
<path d="M705 394 Q713 391 719 397"/>
<path d="M749 393 Q757 390 762 400"/>
<path d="M786 414 Q794 411 798 425"/>
<path d="M681 456 Q689 453 695 447"/>
<path d="M719 440 Q727 437 734 437"/>
<path d="M754 453 Q762 450 766 449"/>
<path d="M701 487 Q709 484 711 475"/>
<path d="M742 493 Q750 490 750 480"/>
<path d="M791 478 Q799 475 799 465"/>
<path d="M826 449 Q834 446 832 437"/>
<path d="M867 343 Q875 340 879 351"/>
<path d="M878 374 Q886 371 891 380"/>
<path d="M866 403 Q874 400 878 408"/>
<path d="M886 429 Q894 426 899 430"/></g>
  <g fill="none" stroke="#493326" stroke-width="3" class="line" opacity=".62">
    <path d="m596 410 18 5m-4-49 14 13m48-32 12 13m67-12 10 15m-101 127 15-13m55 33 5-15m65 12 7-17m-90-96 10 9m48 22 11 5m-97 11 13-4"/>
  </g>
  <!-- 近侧后腿踩在右上方脚踏上。 -->
  <path d="M765 494C732 512 723 553 753 578L805 622 840 707Q848 727 869 726L887 710 858 600 814 552Q830 522 803 501Z" fill="url(#body)" stroke="#392f24" stroke-width="5" class="line"/>
  <path d="M769 521q-19 26 6 47l50 47 28 87" fill="none" stroke="#c28a53" stroke-width="8" stroke-linecap="round" opacity=".57"/>
  <path d="M842 703q23 9 43-3l19 31q9 18-12 18l-43-3q-14-3-14-17Z" fill="#2e3026" stroke="#392f24" stroke-width="4"/>
  <path d="m875 722 7 25" stroke="#a08b69" stroke-width="3" class="line"/>
  <path d="M847 711q11 7 26 5" fill="none" stroke="#caad77" stroke-width="2" opacity=".7"/>
  <!-- 围巾迎风飞起，增强骑行速度和角色的活力。 -->
  <path d="M887 374q-73-43-127-51c-44-7-63 18-114 9l23-18-29-18q68 5 104-9c50-18 112 25 165 36Z" fill="#cd5838" stroke="#693c2a" stroke-width="4" class="line"/>
  <path d="M879 351q-106-63-157-37-23 10-58 7" fill="none" stroke="#f8aa64" stroke-width="6"/>
  <path d="M770 325q-43 37-102 37l24 17-31 12q84 0 124-47Z" fill="#af422d" stroke="#693c2a" stroke-width="3" class="line"/>
  <path d="m671 378 20-4m-11 7 17-5m-28-65 14 7m-21-13 13 8" stroke="#f1b66c" stroke-width="2"/>
  <!-- 头部、耳朵、长吻和獠牙是野猪的主要识别特征。 -->
  <path d="M902 315q-12-51 20-86 42 18 38 68Z" fill="#744630" stroke="#392f24" stroke-width="5" class="line"/>
  <path d="m920 301 8-54q22 21 17 44Z" fill="#bf8160"/>
  <path d="M844 332q12-55 67-58 63 5 92 58l22 32 64 27q31 14 18 45l-14 27q-18 30-61 18l-42-8q-43 46-107 13l-57-33Z" fill="url(#face)" stroke="#392f24" stroke-width="5" class="line"/>
  <path d="M865 399q-6-39 14-65c-1 55 23 91 56 111-44-3-61-19-70-46Z" fill="#d0935f" opacity=".3"/>
  <path d="M834 391q-40-57-18-116 63 4 78 62Z" fill="#945b3b" stroke="#392f24" stroke-width="5" class="line"/>
  <path d="M837 363q-23-35-13-69 39 12 49 42Z" fill="#cc896a"/>
  <path d="M837 342q-7-20-8-34" fill="none" stroke="#ebb18a" stroke-width="4" class="line"/>
  <path d="M906 412q16-22 39-3" fill="none" stroke="#774631" stroke-width="3" class="line"/>
  <ellipse cx="949" cy="382" rx="22" ry="26" fill="#fff5d8" stroke="#493424" stroke-width="4" transform="rotate(-12 949 382)"/>
  <ellipse cx="958" cy="380" rx="10" ry="15" fill="#26382d"/>
  <circle cx="960" cy="374" r="4.5" fill="#fffdf1"/>
  <path d="M922 347q27-21 48-2" fill="none" stroke="#493225" stroke-width="9" class="line"/>
  <path d="M922 344q25-15 43-4" fill="none" stroke="#bd8554" stroke-width="2.5" class="line"/>
  <path d="M973 428q25 9 44 7l68 12q-19 55-66 41-30-8-46-60Z" fill="#43291f" stroke="#392f24" stroke-width="4" class="line"/>
  <path d="M1010 474q18-24 46-7l-7 19q-21 8-39-12Z" fill="#d77459"/>
  <path d="m1027 475 17 6" stroke="#9e4a3a" stroke-width="2" class="line"/>
  <path d="M1017 440q-11-24-1-49 1 37 30 43l-8 17Z" fill="#f9e9bd" stroke="#65482d" stroke-width="3" class="line"/>
  <path d="M1008 391q3 22 16 34" fill="none" stroke="#fffbee" stroke-width="3" class="line"/>
  <path d="M1044 383c28-11 62 0 71 21 10 25-7 53-36 55-25 3-52-14-54-34-3-19 2-34 19-42Z" fill="url(#snout)" stroke="#65452e" stroke-width="4"/>
  <path d="M1043 393q27-13 49 3" fill="none" stroke="#f0bf92" stroke-width="4" class="line"/>
  <ellipse cx="1063" cy="416" rx="8" ry="12" fill="#70442f" transform="rotate(-17 1063 416)"/>
  <ellipse cx="1093" cy="426" rx="7" ry="11" fill="#70442f" transform="rotate(-15 1093 426)"/>
  <path d="M987 467c-30 9-48-15-43-44-25 26-13 63 24 62Z" fill="#fff0c7" stroke="#604630" stroke-width="3.5" class="line"/>
  <path d="M946 437q-9 25 19 39" fill="none" stroke="#fffcef" stroke-width="3" class="line"/>
  <g fill="#704932">
    <circle cx="1003" cy="406" r="2.3"/><circle cx="992" cy="415" r="2"/>
    <circle cx="1014" cy="416" r="1.7"/><circle cx="982" cy="397" r="1.8"/>
  </g>
  <g fill="none" stroke="#583a29" stroke-width="2.2" class="line">
    <path d="m874 397 11 5m-10 11 13 4m-8 10 12 3m-43-65 7 10m10-4 6 8m24 92 10 1"/>
  </g>
  <path d="M844 448q23 29 72 32l-9 27q-47 7-83-33Z" fill="#ce5c3d" stroke="#693c2a" stroke-width="3"/>
  <path d="M844 448q23 29 72 32l-9 27q-47 7-83-33Z" fill="url(#knit)"/>
  <path d="M844 463q24 27 62 26" fill="none" stroke="#f3a05c" stroke-width="4" class="line"/>
  <!-- 头盔通风槽、边沿和扣带。 -->
  <path d="M835 300c9-56 62-84 104-69 37 11 59 36 61 71l-27 12-126-1Z" fill="url(#helmet)" stroke="#334733" stroke-width="4" class="line"/>
  <path d="M849 276q43-53 103-23" fill="none" stroke="#b5bf7a" stroke-width="8" class="line"/>
  <path d="M871 243q-12 15-14 37m46-48q-15 17-14 44m45-37q-12 18-10 40m41-18q-8 9-7 22" fill="none" stroke="#264c39" stroke-width="9" class="line"/>
  <path d="M842 294q61-2 116 5l50-9q10 7-2 16l-44 11-125-8Z" fill="#2f503b" stroke="#304433" stroke-width="3" class="line"/>
  <path d="M856 309q0 94 52 143l15-22" fill="none" stroke="#304633" stroke-width="8" class="line"/>
  <path d="M976 312q2 27-3 39" fill="none" stroke="#304633" stroke-width="7" class="line"/>
  <rect x="896" y="437" width="21" height="13" rx="3" fill="#d5c486" stroke="#334532" stroke-width="2" transform="rotate(41 906 443)"/>
  <!-- 前腿自然弯曲，蹄子牢牢握住车把。 -->
  <path d="M893 486q7-21 26-14l61 28 55 10 18 27q-21 17-43 10l-58-9-58-27Z" fill="url(#face)" stroke="#392f24" stroke-width="4.5" class="line"/>
  <path d="M912 487q38 28 87 34" fill="none" stroke="#ce9461" stroke-width="7" stroke-linecap="round" opacity=".6"/>
  <path d="M1022 509q15-15 34-11l24 14q10 10 2 22l-14 10-36-6Z" fill="#343229" stroke="#392f24" stroke-width="4" class="line"/>
  <path d="m1057 504-7 28" stroke="#a49171" stroke-width="3" class="line"/>
  <path d="M1033 510q8-5 14-4" fill="none" stroke="#b5a17d" stroke-width="2" class="line"/>
  <!-- 大号对话气泡，数值是整个画面的第二视觉中心。 -->
  <path d="M1144 153q164-30 302 10 61 21 49 107-5 77-79 92-136 22-240-2l-72 45 19-66q-57-33-49-106 5-65 70-80Z" fill="#586645" opacity=".13" transform="translate(8 12)"/>
  <path d="M1144 153q164-30 302 10 61 21 49 107-5 77-79 92-136 22-240-2l-72 45 19-66q-57-33-49-106 5-65 70-80Z" fill="#fff9e7" stroke="#334a34" stroke-width="4.5" class="line"/>
  <path d="M1136 181q112-36 246-16" fill="none" stroke="#eadbb9" stroke-width="3" class="line"/>
  <text x="1284" y="207" text-anchor="middle" font-size="19" font-weight="800" fill="#4c6448" letter-spacing="5">最少取——</text>
  <text x="1278" y="331" text-anchor="middle" font-family="Georgia,'Times New Roman',serif" font-size="144" font-weight="900" fill="#cf5838" letter-spacing="-8" style="font-family:Georgia,'Times New Roman',serif">21<tspan font-size="112" dx="9">!</tspan></text>
  <text x="1420" y="323" font-size="26" font-weight="800" fill="#334a34" transform="rotate(9 1420 323)">个</text>
  <g class="line" fill="none" stroke="#b87836" stroke-width="4">
    <path d="m1144 438 26-6m-30 24 26 7m-48-37 10-16"/>
    <path d="m1489 140 10-24m12 37 24-12m-59-21-1-19"/>
  </g>
  <!-- 糖果随喊声跃出，圆形与五角星形在画面中呼应。 -->
  <g transform="translate(1240 442) rotate(-19)">
    <path d="m-25-8-23-12 1 34 23-9M25-8l23-12-1 34-23-9" fill="#edb166" stroke="#a2753d" stroke-width="2"/>
    <circle r="27" fill="#d86c45" stroke="#8f5235" stroke-width="2"/>
    <path d="M-16-8q8-13 22-8" fill="none" stroke="#ffbf83" stroke-width="5" class="line"/>
    <path d="m-40-11 7 11-8 6m81-17-7 11 8 6" fill="none" stroke="#fff0b7" stroke-width="2"/>
  </g>
  <g transform="translate(1370 458) rotate(17)">
    <path d="M-32-5-46-17l-3 30 19-9M29-5l17-12 3 30-19-9" fill="#c1cf92" stroke="#70865b" stroke-width="2"/>
    <polygon points="0.00,-38.00 10.05,-13.83 36.14,-11.74 16.26,5.28 22.34,30.74 0.00,17.10 -22.34,30.74 -16.26,5.28 -36.14,-11.74 -10.05,-13.83" fill="#e6ae57"/>
    <path d="m0-30 7 17 20 3" fill="none" stroke="#fff2bb" stroke-width="3" class="line"/>
  </g>
  <polygon points="1311.00,389.00 1313.65,395.36 1320.51,395.91 1315.28,400.39 1316.88,407.09 1311.00,403.50 1305.12,407.09 1306.72,400.39 1301.49,395.91 1308.35,395.36" fill="#81996b"/>
  <circle cx="1425" cy="405" r="4" fill="#bd8250"/>
  <circle cx="1293" cy="488" r="4" fill="#bd8250"/>
  <path d="M1232 505q47 31 89 7" fill="none" stroke="#9b9566" stroke-width="1.5" stroke-dasharray="4 7"/>
  <!-- 左下角的题目提示画成绑在野餐糖袋上的小标签。 -->
  <g transform="translate(135 617) rotate(-8)">
    <path d="M14-40q41-20 84 0l-13 24q38 42 35 103-1 45-70 46-75 1-76-39-1-61 52-113Z" fill="#344339" stroke="#253b30" stroke-width="4"/>
    <path d="M23-32q33 15 65-1M22-21q24 10 65-2" fill="none" stroke="#849073" stroke-width="3" class="line"/>
    <path d="M25-19q-15 42-28 70m87-70q18 38 21 57" fill="none" stroke="#62755d" stroke-width="4" class="line"/>
    <path d="M24-18q28 9 63-3" fill="none" stroke="#e1b269" stroke-width="6"/>
    <path d="M82-20q36-30 38-6 0 18-38 9 36 7 28 26" fill="none" stroke="#d3a765" stroke-width="3" class="line"/>
    <rect x="4" y="30" width="104" height="70" rx="5" fill="#f5e5b9" stroke="#b7a071" stroke-width="2"/>
    <circle cx="14" cy="40" r="3" fill="#7c7351"/>
    <text x="56" y="60" font-size="14" text-anchor="middle" fill="#3a4c38" font-weight="800">神秘糖果袋</text>
    <text x="56" y="82" font-size="12" text-anchor="middle" fill="#766d4f">形状，摸得出来</text>
  </g>
  <!-- 前景植物、碎石和速度线增加细节，但避开车轮和面部。 -->
  <g fill="none" stroke="#897b51" stroke-width="3" class="line" opacity=".65">
    <path d="M316 588h99m-65 17h45M285 742h59m-42 16h21M450 509h48"/>
    <path d="m1007 941 17-3m287-57 13-3m-960 65 18-3m-87-129 12-2"/>
  </g>
  <g fill="#c7ac73">
    <ellipse cx="357" cy="970" rx="12" ry="4"/><ellipse cx="995" cy="946" rx="8" ry="3"/>
    <ellipse cx="1301" cy="929" rx="13" ry="4"/><ellipse cx="419" cy="930" rx="8" ry="3"/>
    <ellipse cx="1177" cy="997" rx="10" ry="3"/><ellipse cx="226" cy="941" rx="10" ry="4"/>
  </g>
  <g class="line" stroke="#416447" stroke-width="4" fill="none">
    <path d="M108 1001q37-111 16-194M145 1000q10-91 67-141M77 1000q12-71-19-97"/>
    <path d="M1451 1003q-29-97-6-190M1486 1005q-4-80 53-133M1414 1001q-7-68-43-102"/>
  </g>
  <g color="#527752">
    <use xlink:href="#leaf" transform="translate(120 925) rotate(-23) scale(.8)"/>
    <use xlink:href="#leaf" transform="translate(125 878) rotate(88) scale(.7)"/>
    <use xlink:href="#leaf" transform="translate(143 977) rotate(71) scale(.9)"/>
    <use xlink:href="#leaf" transform="translate(81 968) rotate(-24) scale(.74)"/>
    <use xlink:href="#leaf" transform="translate(1450 927) rotate(60) scale(.85)"/>
    <use xlink:href="#leaf" transform="translate(1448 872) rotate(-28) scale(.7)"/>
    <use xlink:href="#leaf" transform="translate(1489 967) rotate(91) scale(.8)"/>
  </g>
  <g color="#87965c">
    <use xlink:href="#leaf" transform="translate(111 966) rotate(-68) scale(.7)"/>
    <use xlink:href="#leaf" transform="translate(159 938) rotate(92) scale(.7)"/>
    <use xlink:href="#leaf" transform="translate(1436 976) rotate(-21) scale(.85)"/>
    <use xlink:href="#leaf" transform="translate(1511 933) rotate(83) scale(.75)"/>
  </g>
  <use xlink:href="#flower" transform="translate(198 996) rotate(8) scale(1.1)"/>
  <use xlink:href="#flower" transform="translate(242 1004) rotate(-14) scale(.76)"/>
  <use xlink:href="#flower" transform="translate(1360 1002) rotate(-9) scale(.95)"/>
  <use xlink:href="#flower" transform="translate(1321 1007) rotate(13) scale(.65)"/>
  <g transform="translate(323 880)">
    <path d="M-4 17 0-7h8l4 25" fill="#ebd7aa" stroke="#8b6d46" stroke-width="2"/>
    <path d="M-22 0q4-28 25-25Q26-24 31 1Z" fill="#bf5a3b" stroke="#81482e" stroke-width="2"/>
    <g fill="#f4dbad"><ellipse cx="-8" cy="-8" rx="4" ry="3"/><ellipse cx="7" cy="-18" rx="4" ry="3"/><ellipse cx="19" cy="-6" rx="3" ry="3"/></g>
  </g>
  <!-- 页脚把取糖策略压缩成直观的两种形状相加。 -->
  <path d="M28 1025H1572V1132H28Z" fill="#294d3c"/>
  <path d="M72 1025H1528" stroke="#b6b679" stroke-width="2"/>
  <g transform="translate(91 1080)">
    <circle r="22" fill="#eeaf64" stroke="#fae4b0" stroke-width="2"/>
    <path d="M-12-6q5-10 16-8" stroke="#fff0bf" stroke-width="3" fill="none" class="line"/>
    <text x="37" y="9" fill="#fff1c9" font-size="25" font-weight="800">9 个圆形</text>
    <text x="199" y="10" fill="#aeb982" font-size="31" font-weight="400">＋</text>
    <polygon points="260.00,-26.00 266.88,-9.47 284.73,-8.03 271.13,3.62 275.28,21.03 260.00,11.70 244.72,21.03 248.87,3.62 235.27,-8.03 253.12,-9.47" fill="#edaf64"/>
    <text x="299" y="9" fill="#fff1c9" font-size="25" font-weight="800">12 个五角星形</text>
    <path d="M528-27v53" stroke="#90a072" stroke-width="1"/>
    <text x="559" y="-6" fill="#fff0c7" font-size="20" font-weight="700">凭手感选形状，保证配对成功。</text>
    <text x="559" y="23" fill="#c5cfaa" font-size="14">五角星形必含苹果味与桃子味；圆形必含其中一种。</text>
    <text x="1389" y="4" text-anchor="end" fill="#a8ba8c" font-size="11" letter-spacing="2">KEEP RIDING.</text>
    <text x="1389" y="24" text-anchor="end" fill="#a8ba8c" font-size="11" letter-spacing="2">KEEP THINKING.</text>
  </g>
  <rect x="28" y="28" width="1544" height="1104" fill="url(#grain)" pointer-events="none"/>
</g>
<rect x="28" y="28" width="1544" height="1104" rx="28" fill="none" stroke="#9d9869" stroke-width="1.5"/>
</svg>
